<svg xmlns="http://www.w3.org/2000/svg" xmlns:xlink="http://www.w3.org/1999/xlink" width="1366" zoomAndPan="magnify" viewBox="0 0 1024.5 576" height="768" preserveAspectRatio="xMidYMid meet" version="1.0"><defs><clipPath id="4baf91cb19"><path d="M 39 43 L 985 43 L 985 532.960938 L 39 532.960938 Z M 39 43 " clip-rule="nonzero"/></clipPath><clipPath id="e8640d5496"><path d="M 39.40625 288.183594 C 39.40625 423.578125 251.035156 533.34375 512.074219 533.34375 C 773.109375 533.34375 984.738281 423.578125 984.738281 288.183594 C 984.738281 152.785156 773.109375 43.023438 512.074219 43.023438 C 251.035156 43.023438 39.40625 152.789062 39.40625 288.183594 " clip-rule="nonzero"/></clipPath><clipPath id="a7246f41c6"><path d="M 39.40625 288.183594 C 39.40625 423.578125 251.035156 533.34375 512.074219 533.34375 C 773.109375 533.34375 984.738281 423.578125 984.738281 288.183594 C 984.738281 152.785156 773.109375 43.023438 512.074219 43.023438 C 251.035156 43.023438 39.40625 152.789062 39.40625 288.183594 " clip-rule="nonzero"/></clipPath><radialGradient gradientTransform="matrix(1.00705, 0, 0, 0.99295, 323.198095, 129.208617)" gradientUnits="userSpaceOnUse" r="616.336072" cx="0" id="22cf2b0b40" cy="0" fx="0" fy="0"><stop stop-opacity="1" stop-color="rgb(68.199158%, 69.799805%, 83.499146%)" offset="0"/><stop stop-opacity="1" stop-color="rgb(68.199158%, 69.799805%, 83.499146%)" offset="0.25"/><stop stop-opacity="1" stop-color="rgb(68.164062%, 69.764709%, 83.473206%)" offset="0.296875"/><stop stop-opacity="1" stop-color="rgb(67.956543%, 69.555664%, 83.317566%)" offset="0.300781"/><stop stop-opacity="1" stop-color="rgb(67.608643%, 69.20929%, 83.059692%)" offset="0.304688"/><stop stop-opacity="1" stop-color="rgb(67.260742%, 68.861389%, 82.800293%)" offset="0.308594"/><stop stop-opacity="1" stop-color="rgb(66.914368%, 68.513489%, 82.542419%)" offset="0.3125"/><stop stop-opacity="1" stop-color="rgb(66.566467%, 68.167114%, 82.28302%)" offset="0.316406"/><stop stop-opacity="1" stop-color="rgb(66.220093%, 67.819214%, 82.025146%)" offset="0.320312"/><stop stop-opacity="1" stop-color="rgb(65.872192%, 67.472839%, 81.765747%)" offset="0.324219"/><stop stop-opacity="1" stop-color="rgb(65.525818%, 67.124939%, 81.506348%)" offset="0.328125"/><stop stop-opacity="1" stop-color="rgb(65.177917%, 66.778564%, 81.248474%)" offset="0.332031"/><stop stop-opacity="1" stop-color="rgb(64.831543%, 66.430664%, 80.989075%)" offset="0.335938"/><stop stop-opacity="1" stop-color="rgb(64.483643%, 66.08429%, 80.731201%)" offset="0.339844"/><stop stop-opacity="1" stop-color="rgb(64.135742%, 65.736389%, 80.471802%)" offset="0.34375"/><stop stop-opacity="1" stop-color="rgb(63.789368%, 65.388489%, 80.213928%)" offset="0.347656"/><stop stop-opacity="1" stop-color="rgb(63.441467%, 65.042114%, 79.954529%)" offset="0.351562"/><stop stop-opacity="1" stop-color="rgb(63.095093%, 64.694214%, 79.696655%)" offset="0.355469"/><stop stop-opacity="1" stop-color="rgb(62.747192%, 64.347839%, 79.437256%)" offset="0.359375"/><stop stop-opacity="1" stop-color="rgb(62.400818%, 63.999939%, 79.179382%)" offset="0.363281"/><stop stop-opacity="1" stop-color="rgb(62.052917%, 63.653564%, 78.919983%)" offset="0.367188"/><stop stop-opacity="1" stop-color="rgb(61.706543%, 63.305664%, 78.662109%)" offset="0.371094"/><stop stop-opacity="1" stop-color="rgb(61.358643%, 62.95929%, 78.40271%)" offset="0.375"/><stop stop-opacity="1" stop-color="rgb(61.010742%, 62.611389%, 78.144836%)" offset="0.378906"/><stop stop-opacity="1" stop-color="rgb(60.664368%, 62.263489%, 77.885437%)" offset="0.382812"/><stop stop-opacity="1" stop-color="rgb(60.316467%, 61.917114%, 77.627563%)" offset="0.386719"/><stop stop-opacity="1" stop-color="rgb(59.970093%, 61.569214%, 77.368164%)" offset="0.390625"/><stop stop-opacity="1" stop-color="rgb(59.622192%, 61.222839%, 77.108765%)" offset="0.394531"/><stop stop-opacity="1" stop-color="rgb(59.275818%, 60.874939%, 76.850891%)" offset="0.398438"/><stop stop-opacity="1" stop-color="rgb(58.927917%, 60.528564%, 76.591492%)" offset="0.402344"/><stop stop-opacity="1" stop-color="rgb(58.581543%, 60.180664%, 76.333618%)" offset="0.40625"/><stop stop-opacity="1" stop-color="rgb(58.233643%, 59.83429%, 76.074219%)" offset="0.410156"/><stop stop-opacity="1" stop-color="rgb(57.885742%, 59.486389%, 75.816345%)" offset="0.414062"/><stop stop-opacity="1" stop-color="rgb(57.539368%, 59.138489%, 75.556946%)" offset="0.417969"/><stop stop-opacity="1" stop-color="rgb(57.191467%, 58.792114%, 75.299072%)" offset="0.421875"/><stop stop-opacity="1" stop-color="rgb(56.845093%, 58.444214%, 75.039673%)" offset="0.425781"/><stop stop-opacity="1" stop-color="rgb(56.497192%, 58.097839%, 74.781799%)" offset="0.429688"/><stop stop-opacity="1" stop-color="rgb(56.150818%, 57.749939%, 74.5224%)" offset="0.433594"/><stop stop-opacity="1" stop-color="rgb(55.802917%, 57.403564%, 74.264526%)" offset="0.4375"/><stop stop-opacity="1" stop-color="rgb(55.456543%, 57.055664%, 74.005127%)" offset="0.441406"/><stop stop-opacity="1" stop-color="rgb(55.108643%, 56.70929%, 73.747253%)" offset="0.445312"/><stop stop-opacity="1" stop-color="rgb(54.760742%, 56.361389%, 73.487854%)" offset="0.449219"/><stop stop-opacity="1" stop-color="rgb(54.414368%, 56.013489%, 73.22998%)" offset="0.453125"/><stop stop-opacity="1" stop-color="rgb(54.066467%, 55.667114%, 72.970581%)" offset="0.457031"/><stop stop-opacity="1" stop-color="rgb(53.720093%, 55.319214%, 72.711182%)" offset="0.460938"/><stop stop-opacity="1" stop-color="rgb(53.372192%, 54.972839%, 72.453308%)" offset="0.464844"/><stop stop-opacity="1" stop-color="rgb(53.025818%, 54.624939%, 72.193909%)" offset="0.46875"/><stop stop-opacity="1" stop-color="rgb(52.677917%, 54.278564%, 71.936035%)" offset="0.472656"/><stop stop-opacity="1" stop-color="rgb(52.331543%, 53.930664%, 71.676636%)" offset="0.476562"/><stop stop-opacity="1" stop-color="rgb(51.983643%, 53.58429%, 71.418762%)" offset="0.480469"/><stop stop-opacity="1" stop-color="rgb(51.635742%, 53.236389%, 71.159363%)" offset="0.484375"/><stop stop-opacity="1" stop-color="rgb(51.289368%, 52.888489%, 70.901489%)" offset="0.488281"/><stop stop-opacity="1" stop-color="rgb(50.941467%, 52.542114%, 70.64209%)" offset="0.492188"/><stop stop-opacity="1" stop-color="rgb(50.595093%, 52.194214%, 70.384216%)" offset="0.496094"/><stop stop-opacity="1" stop-color="rgb(50.247192%, 51.847839%, 70.124817%)" offset="0.5"/><stop stop-opacity="1" stop-color="rgb(49.900818%, 51.499939%, 69.866943%)" offset="0.503906"/><stop stop-opacity="1" stop-color="rgb(49.552917%, 51.153564%, 69.607544%)" offset="0.507812"/><stop stop-opacity="1" stop-color="rgb(49.206543%, 50.805664%, 69.34967%)" offset="0.511719"/><stop stop-opacity="1" stop-color="rgb(48.858643%, 50.45929%, 69.090271%)" offset="0.515625"/><stop stop-opacity="1" stop-color="rgb(48.510742%, 50.111389%, 68.832397%)" offset="0.519531"/><stop stop-opacity="1" stop-color="rgb(48.164368%, 49.763489%, 68.572998%)" offset="0.523438"/><stop stop-opacity="1" stop-color="rgb(47.816467%, 49.417114%, 68.313599%)" offset="0.527344"/><stop stop-opacity="1" stop-color="rgb(47.470093%, 49.069214%, 68.055725%)" offset="0.53125"/><stop stop-opacity="1" stop-color="rgb(47.122192%, 48.722839%, 67.796326%)" offset="0.535156"/><stop stop-opacity="1" stop-color="rgb(46.775818%, 48.374939%, 67.538452%)" offset="0.539062"/><stop stop-opacity="1" stop-color="rgb(46.427917%, 48.028564%, 67.279053%)" offset="0.542969"/><stop stop-opacity="1" stop-color="rgb(46.081543%, 47.680664%, 67.021179%)" offset="0.546875"/><stop stop-opacity="1" stop-color="rgb(45.733643%, 47.33429%, 66.76178%)" offset="0.550781"/><stop stop-opacity="1" stop-color="rgb(45.385742%, 46.986389%, 66.503906%)" offset="0.554688"/><stop stop-opacity="1" stop-color="rgb(45.039368%, 46.638489%, 66.244507%)" offset="0.558594"/><stop stop-opacity="1" stop-color="rgb(44.691467%, 46.292114%, 65.986633%)" offset="0.5625"/><stop stop-opacity="1" stop-color="rgb(44.345093%, 45.944214%, 65.727234%)" offset="0.566406"/><stop stop-opacity="1" stop-color="rgb(43.997192%, 45.597839%, 65.46936%)" offset="0.570312"/><stop stop-opacity="1" stop-color="rgb(43.650818%, 45.249939%, 65.209961%)" offset="0.574219"/><stop stop-opacity="1" stop-color="rgb(43.302917%, 44.903564%, 64.952087%)" offset="0.578125"/><stop stop-opacity="1" stop-color="rgb(42.956543%, 44.555664%, 64.692688%)" offset="0.582031"/><stop stop-opacity="1" stop-color="rgb(42.608643%, 44.20929%, 64.434814%)" offset="0.585938"/><stop stop-opacity="1" stop-color="rgb(42.260742%, 43.861389%, 64.175415%)" offset="0.589844"/><stop stop-opacity="1" stop-color="rgb(41.914368%, 43.513489%, 63.916016%)" offset="0.59375"/><stop stop-opacity="1" stop-color="rgb(41.566467%, 43.167114%, 63.658142%)" offset="0.597656"/><stop stop-opacity="1" stop-color="rgb(41.220093%, 42.819214%, 63.398743%)" offset="0.601562"/><stop stop-opacity="1" stop-color="rgb(40.872192%, 42.472839%, 63.140869%)" offset="0.605469"/><stop stop-opacity="1" stop-color="rgb(40.525818%, 42.124939%, 62.88147%)" offset="0.609375"/><stop stop-opacity="1" stop-color="rgb(40.177917%, 41.778564%, 62.623596%)" offset="0.613281"/><stop stop-opacity="1" stop-color="rgb(39.831543%, 41.430664%, 62.364197%)" offset="0.617188"/><stop stop-opacity="1" stop-color="rgb(39.483643%, 41.08429%, 62.106323%)" offset="0.621094"/><stop stop-opacity="1" stop-color="rgb(39.135742%, 40.736389%, 61.846924%)" offset="0.625"/><stop stop-opacity="1" stop-color="rgb(38.789368%, 40.388489%, 61.58905%)" offset="0.628906"/><stop stop-opacity="1" stop-color="rgb(38.441467%, 40.042114%, 61.329651%)" offset="0.632812"/><stop stop-opacity="1" stop-color="rgb(38.095093%, 39.694214%, 61.071777%)" offset="0.636719"/><stop stop-opacity="1" stop-color="rgb(37.747192%, 39.347839%, 60.812378%)" offset="0.640625"/><stop stop-opacity="1" stop-color="rgb(37.400818%, 38.999939%, 60.554504%)" offset="0.644531"/><stop stop-opacity="1" stop-color="rgb(37.052917%, 38.653564%, 60.295105%)" offset="0.648438"/><stop stop-opacity="1" stop-color="rgb(36.706543%, 38.305664%, 60.037231%)" offset="0.652344"/><stop stop-opacity="1" stop-color="rgb(36.358643%, 37.95929%, 59.777832%)" offset="0.65625"/><stop stop-opacity="1" stop-color="rgb(36.010742%, 37.611389%, 59.518433%)" offset="0.660156"/><stop stop-opacity="1" stop-color="rgb(35.664368%, 37.263489%, 59.260559%)" offset="0.664062"/><stop stop-opacity="1" stop-color="rgb(35.316467%, 36.917114%, 59.00116%)" offset="0.667969"/><stop stop-opacity="1" stop-color="rgb(34.970093%, 36.569214%, 58.743286%)" offset="0.671875"/><stop stop-opacity="1" stop-color="rgb(34.622192%, 36.222839%, 58.483887%)" offset="0.675781"/><stop stop-opacity="1" stop-color="rgb(34.275818%, 35.874939%, 58.226013%)" offset="0.679688"/><stop stop-opacity="1" stop-color="rgb(33.927917%, 35.528564%, 57.966614%)" offset="0.683594"/><stop stop-opacity="1" stop-color="rgb(33.581543%, 35.180664%, 57.70874%)" offset="0.6875"/><stop stop-opacity="1" stop-color="rgb(33.233643%, 34.83429%, 57.449341%)" offset="0.691406"/><stop stop-opacity="1" stop-color="rgb(32.885742%, 34.486389%, 57.191467%)" offset="0.695312"/><stop stop-opacity="1" stop-color="rgb(32.539368%, 34.138489%, 56.932068%)" offset="0.699219"/><stop stop-opacity="1" stop-color="rgb(32.191467%, 33.792114%, 56.674194%)" offset="0.703125"/><stop stop-opacity="1" stop-color="rgb(31.845093%, 33.444214%, 56.414795%)" offset="0.707031"/><stop stop-opacity="1" stop-color="rgb(31.497192%, 33.097839%, 56.156921%)" offset="0.710938"/><stop stop-opacity="1" stop-color="rgb(31.150818%, 32.749939%, 55.897522%)" offset="0.714844"/><stop stop-opacity="1" stop-color="rgb(30.802917%, 32.403564%, 55.639648%)" offset="0.71875"/><stop stop-opacity="1" stop-color="rgb(30.456543%, 32.055664%, 55.380249%)" offset="0.722656"/><stop stop-opacity="1" stop-color="rgb(30.108643%, 31.70929%, 55.122375%)" offset="0.726562"/><stop stop-opacity="1" stop-color="rgb(29.760742%, 31.361389%, 54.862976%)" offset="0.730469"/><stop stop-opacity="1" stop-color="rgb(29.414368%, 31.013489%, 54.603577%)" offset="0.734375"/><stop stop-opacity="1" stop-color="rgb(29.066467%, 30.667114%, 54.345703%)" offset="0.738281"/><stop stop-opacity="1" stop-color="rgb(28.720093%, 30.319214%, 54.086304%)" offset="0.742188"/><stop stop-opacity="1" stop-color="rgb(28.372192%, 29.972839%, 53.82843%)" offset="0.746094"/><stop stop-opacity="1" stop-color="rgb(28.199768%, 29.798889%, 53.69873%)" offset="1"/></radialGradient></defs><g clip-path="url(#4baf91cb19)"><g clip-path="url(#e8640d5496)"><g clip-path="url(#a7246f41c6)"><path fill="url(#22cf2b0b40)" d="M 39.40625 43.023438 L 39.40625 532.960938 L 984.738281 532.960938 L 984.738281 43.023438 Z M 39.40625 43.023438 " fill-rule="nonzero"/></g></g></g><path fill="#777bb3" d="M 512.074219 515.136719 C 762.917969 515.136719 966.273438 413.527344 966.273438 288.183594 C 966.273438 162.835938 762.917969 61.226562 512.074219 61.226562 C 261.226562 61.226562 57.871094 162.835938 57.871094 288.183594 C 57.871094 413.527344 261.226562 515.136719 512.074219 515.136719 " fill-opacity="1" fill-rule="nonzero"/><path fill="#000000" d="M 296.203125 316.316406 C 316.828125 316.316406 332.226562 312.566406 341.96875 305.171875 C 351.609375 297.859375 358.265625 285.179688 361.753906 267.492188 C 365.007812 250.964844 363.769531 239.421875 358.070312 233.195312 C 352.246094 226.832031 339.65625 223.605469 320.644531 223.605469 L 287.683594 223.605469 L 269.40625 316.316406 Z M 188.398438 430.523438 C 186.867188 430.523438 185.414062 429.847656 184.441406 428.683594 C 183.953125 428.101562 183.617188 427.441406 183.429688 426.710938 C 183.238281 425.980469 183.21875 425.242188 183.363281 424.5 L 231.792969 178.820312 C 231.90625 178.242188 232.117188 177.703125 232.421875 177.199219 C 232.726562 176.695312 233.105469 176.253906 233.566406 175.882812 C 234.027344 175.507812 234.535156 175.222656 235.09375 175.023438 C 235.65625 174.828125 236.234375 174.726562 236.828125 174.726562 L 341.207031 174.726562 C 374.007812 174.726562 398.425781 183.492188 413.773438 200.832031 C 429.199219 218.246094 433.964844 242.589844 427.933594 273.179688 C 425.476562 285.644531 421.253906 297.21875 415.382812 307.585938 C 409.503906 317.960938 401.734375 327.558594 392.289062 336.125 C 380.976562 346.5625 368.175781 354.128906 354.273438 358.582031 C 340.589844 362.976562 323.023438 365.207031 302.050781 365.207031 L 259.785156 365.207031 L 247.714844 426.433594 C 247.601562 427.007812 247.394531 427.550781 247.089844 428.054688 C 246.785156 428.558594 246.402344 428.996094 245.945312 429.371094 C 245.484375 429.746094 244.976562 430.03125 244.414062 430.230469 C 243.855469 430.425781 243.277344 430.527344 242.683594 430.527344 L 188.386719 430.527344 Z M 188.398438 430.523438 " fill-opacity="1" fill-rule="nonzero"/><path fill="#ffffff" d="M 291.914062 228.660156 L 320.648438 228.660156 C 343.589844 228.660156 351.5625 233.625 354.269531 236.585938 C 358.761719 241.496094 359.609375 251.851562 356.722656 266.535156 C 353.476562 282.96875 347.464844 294.621094 338.84375 301.164062 C 330.019531 307.863281 315.671875 311.257812 296.207031 311.257812 L 275.640625 311.257812 L 291.921875 228.660156 Z M 341.199219 169.664062 L 236.828125 169.664062 C 236.238281 169.664062 235.652344 169.714844 235.070312 169.8125 C 234.488281 169.914062 233.921875 170.0625 233.363281 170.257812 C 232.808594 170.457031 232.273438 170.699219 231.761719 170.988281 C 231.246094 171.273438 230.761719 171.605469 230.304688 171.972656 C 229.851562 172.34375 229.429688 172.75 229.046875 173.191406 C 228.660156 173.636719 228.316406 174.105469 228.015625 174.605469 C 227.714844 175.109375 227.457031 175.628906 227.246094 176.175781 C 227.035156 176.71875 226.875 177.277344 226.761719 177.847656 L 178.335938 423.546875 C 178.261719 423.914062 178.210938 424.28125 178.179688 424.652344 C 178.148438 425.023438 178.140625 425.390625 178.152344 425.765625 C 178.160156 426.136719 178.191406 426.503906 178.246094 426.875 C 178.296875 427.242188 178.371094 427.605469 178.460938 427.964844 C 178.554688 428.328125 178.667969 428.679688 178.800781 429.027344 C 178.933594 429.378906 179.085938 429.71875 179.253906 430.046875 C 179.425781 430.378906 179.613281 430.703125 179.820312 431.011719 C 180.027344 431.324219 180.25 431.621094 180.488281 431.910156 C 180.730469 432.195312 180.984375 432.46875 181.253906 432.726562 C 181.523438 432.988281 181.808594 433.230469 182.105469 433.460938 C 182.402344 433.6875 182.714844 433.898438 183.035156 434.09375 C 183.355469 434.289062 183.6875 434.464844 184.027344 434.625 C 184.367188 434.78125 184.71875 434.921875 185.074219 435.042969 C 185.429688 435.164062 185.792969 435.265625 186.160156 435.34375 C 186.527344 435.425781 186.898438 435.488281 187.273438 435.527344 C 187.648438 435.570312 188.027344 435.589844 188.402344 435.589844 L 242.683594 435.589844 C 243.273438 435.589844 243.859375 435.539062 244.441406 435.441406 C 245.023438 435.339844 245.59375 435.191406 246.148438 434.996094 C 246.703125 434.796875 247.238281 434.554688 247.753906 434.269531 C 248.265625 433.980469 248.75 433.652344 249.207031 433.28125 C 249.664062 432.910156 250.082031 432.503906 250.46875 432.0625 C 250.851562 431.621094 251.195312 431.148438 251.496094 430.648438 C 251.800781 430.148438 252.054688 429.625 252.265625 429.082031 C 252.476562 428.535156 252.636719 427.976562 252.75 427.40625 L 264.015625 370.269531 L 302.050781 370.269531 C 323.5625 370.269531 341.671875 367.957031 355.871094 363.398438 C 370.46875 358.722656 383.90625 350.789062 395.796875 339.828125 C 405.628906 330.90625 413.746094 320.894531 419.867188 310.0625 C 425.988281 299.234375 430.414062 287.148438 432.976562 274.15625 C 439.328125 241.953125 434.167969 216.167969 417.640625 197.515625 C 401.277344 179.042969 375.5625 169.679688 341.210938 169.679688 M 263.199219 321.386719 L 296.214844 321.386719 C 318.097656 321.386719 334.402344 317.324219 345.109375 309.195312 C 355.820312 301.0625 363.046875 287.492188 366.800781 268.472656 C 370.390625 250.214844 368.757812 237.328125 361.894531 229.820312 C 355.03125 222.3125 341.277344 218.5625 320.660156 218.5625 L 283.46875 218.5625 L 263.199219 321.386719 M 341.214844 179.792969 C 372.613281 179.792969 395.519531 187.917969 409.917969 204.164062 C 424.316406 220.414062 428.648438 243.101562 422.90625 272.222656 C 420.542969 284.222656 416.542969 295.1875 410.914062 305.128906 C 405.285156 315.066406 397.917969 324.164062 388.820312 332.410156 C 377.984375 342.410156 365.941406 349.535156 352.695312 353.78125 C 339.445312 358.039062 322.570312 360.15625 302.054688 360.15625 L 255.5625 360.15625 L 242.6875 425.476562 L 188.410156 425.476562 L 236.84375 179.808594 L 341.21875 179.808594 " fill-opacity="1" fill-rule="nonzero"/><path fill="#000000" d="M 552.382812 365.199219 C 550.851562 365.199219 549.402344 364.523438 548.429688 363.359375 C 547.457031 362.191406 547.058594 360.660156 547.351562 359.179688 L 568.773438 250.46875 C 570.8125 240.132812 570.308594 232.710938 567.359375 229.578125 C 565.554688 227.660156 560.128906 224.445312 544.097656 224.445312 L 505.285156 224.445312 L 478.351562 361.105469 C 478.238281 361.679688 478.027344 362.222656 477.722656 362.726562 C 477.421875 363.230469 477.039062 363.667969 476.578125 364.042969 C 476.121094 364.414062 475.609375 364.703125 475.050781 364.898438 C 474.488281 365.097656 473.910156 365.199219 473.316406 365.199219 L 419.464844 365.199219 C 419.085938 365.199219 418.710938 365.15625 418.34375 365.074219 C 417.976562 364.992188 417.621094 364.875 417.277344 364.714844 C 416.933594 364.554688 416.613281 364.363281 416.316406 364.132812 C 416.019531 363.902344 415.746094 363.644531 415.507812 363.359375 C 415.265625 363.070312 415.0625 362.757812 414.890625 362.425781 C 414.71875 362.09375 414.585938 361.746094 414.492188 361.386719 C 414.402344 361.023438 414.347656 360.65625 414.339844 360.285156 C 414.328125 359.910156 414.359375 359.542969 414.429688 359.175781 L 462.859375 113.492188 C 462.972656 112.917969 463.183594 112.378906 463.484375 111.871094 C 463.789062 111.367188 464.171875 110.929688 464.632812 110.558594 C 465.089844 110.183594 465.601562 109.898438 466.160156 109.699219 C 466.722656 109.5 467.296875 109.402344 467.894531 109.402344 L 521.746094 109.402344 C 522.125 109.402344 522.496094 109.441406 522.867188 109.523438 C 523.234375 109.605469 523.589844 109.726562 523.933594 109.886719 C 524.273438 110.042969 524.59375 110.238281 524.894531 110.46875 C 525.191406 110.695312 525.460938 110.953125 525.703125 111.242188 C 525.945312 111.53125 526.148438 111.839844 526.320312 112.171875 C 526.492188 112.503906 526.625 112.851562 526.714844 113.214844 C 526.808594 113.574219 526.863281 113.941406 526.871094 114.316406 C 526.882812 114.6875 526.851562 115.058594 526.78125 115.421875 L 515.09375 174.722656 L 556.84375 174.722656 C 588.652344 174.722656 610.21875 180.25 622.785156 191.625 C 635.605469 203.230469 639.582031 221.78125 634.660156 246.777344 L 612.128906 361.109375 C 612.015625 361.683594 611.804688 362.222656 611.5 362.730469 C 611.195312 363.234375 610.816406 363.671875 610.355469 364.046875 C 609.894531 364.417969 609.386719 364.703125 608.828125 364.902344 C 608.265625 365.101562 607.6875 365.199219 607.09375 365.199219 Z M 552.382812 365.199219 " fill-opacity="1" fill-rule="nonzero"/><path fill="#ffffff" d="M 521.75 104.34375 L 467.898438 104.34375 C 467.304688 104.34375 466.71875 104.394531 466.136719 104.496094 C 465.554688 104.59375 464.988281 104.742188 464.429688 104.941406 C 463.875 105.136719 463.339844 105.378906 462.828125 105.667969 C 462.3125 105.957031 461.828125 106.285156 461.371094 106.65625 C 460.917969 107.023438 460.496094 107.433594 460.113281 107.875 C 459.726562 108.316406 459.382812 108.789062 459.082031 109.289062 C 458.78125 109.789062 458.523438 110.3125 458.3125 110.855469 C 458.101562 111.398438 457.941406 111.957031 457.828125 112.527344 L 409.398438 358.210938 C 409.328125 358.578125 409.273438 358.945312 409.246094 359.316406 C 409.214844 359.6875 409.203125 360.058594 409.214844 360.429688 C 409.226562 360.800781 409.257812 361.171875 409.308594 361.539062 C 409.359375 361.90625 409.433594 362.269531 409.527344 362.632812 C 409.621094 362.992188 409.730469 363.347656 409.863281 363.695312 C 409.996094 364.042969 410.148438 364.382812 410.320312 364.714844 C 410.488281 365.046875 410.675781 365.367188 410.882812 365.675781 C 411.089844 365.988281 411.3125 366.289062 411.554688 366.574219 C 411.792969 366.859375 412.046875 367.132812 412.320312 367.394531 C 412.589844 367.652344 412.875 367.894531 413.171875 368.125 C 413.46875 368.351562 413.777344 368.5625 414.097656 368.757812 C 414.421875 368.953125 414.75 369.128906 415.09375 369.289062 C 415.433594 369.445312 415.78125 369.585938 416.140625 369.707031 C 416.496094 369.828125 416.859375 369.929688 417.226562 370.011719 C 417.59375 370.089844 417.964844 370.152344 418.339844 370.191406 C 418.714844 370.234375 419.089844 370.253906 419.46875 370.253906 L 473.320312 370.253906 C 473.910156 370.253906 474.496094 370.203125 475.078125 370.105469 C 475.660156 370.003906 476.230469 369.855469 476.785156 369.660156 C 477.34375 369.460938 477.875 369.21875 478.390625 368.933594 C 478.902344 368.644531 479.390625 368.316406 479.84375 367.945312 C 480.300781 367.574219 480.71875 367.167969 481.105469 366.726562 C 481.488281 366.285156 481.832031 365.8125 482.136719 365.3125 C 482.4375 364.8125 482.695312 364.289062 482.90625 363.746094 C 483.113281 363.199219 483.277344 362.640625 483.390625 362.070312 L 509.515625 229.503906 L 544.101562 229.503906 C 560.109375 229.503906 563.46875 232.875 563.601562 233.019531 C 564.574219 234.046875 565.851562 238.816406 563.742188 249.503906 L 542.320312 358.210938 C 542.25 358.578125 542.199219 358.945312 542.167969 359.316406 C 542.136719 359.6875 542.128906 360.058594 542.136719 360.429688 C 542.148438 360.800781 542.179688 361.171875 542.230469 361.539062 C 542.285156 361.90625 542.355469 362.269531 542.449219 362.632812 C 542.542969 362.992188 542.65625 363.347656 542.789062 363.695312 C 542.921875 364.042969 543.070312 364.382812 543.242188 364.714844 C 543.414062 365.046875 543.601562 365.367188 543.808594 365.675781 C 544.015625 365.988281 544.238281 366.289062 544.476562 366.574219 C 544.71875 366.859375 544.972656 367.132812 545.242188 367.394531 C 545.511719 367.652344 545.796875 367.894531 546.09375 368.125 C 546.390625 368.351562 546.703125 368.5625 547.023438 368.757812 C 547.34375 368.953125 547.675781 369.128906 548.015625 369.289062 C 548.355469 369.445312 548.707031 369.585938 549.0625 369.707031 C 549.417969 369.828125 549.78125 369.929688 550.148438 370.011719 C 550.519531 370.089844 550.890625 370.152344 551.265625 370.191406 C 551.636719 370.234375 552.015625 370.253906 552.390625 370.253906 L 607.097656 370.253906 C 607.6875 370.253906 608.277344 370.203125 608.859375 370.105469 C 609.441406 370.003906 610.007812 369.855469 610.566406 369.660156 C 611.121094 369.460938 611.65625 369.21875 612.167969 368.933594 C 612.683594 368.644531 613.167969 368.316406 613.621094 367.945312 C 614.078125 367.574219 614.5 367.167969 614.882812 366.726562 C 615.269531 366.285156 615.613281 365.8125 615.914062 365.3125 C 616.214844 364.8125 616.472656 364.289062 616.683594 363.746094 C 616.894531 363.199219 617.054688 362.640625 617.167969 362.070312 L 639.699219 247.742188 C 644.988281 220.90625 640.464844 200.773438 626.261719 187.902344 C 612.710938 175.628906 590.007812 169.664062 556.855469 169.664062 L 521.320312 169.664062 L 531.824219 116.386719 C 531.894531 116.023438 531.945312 115.65625 531.976562 115.285156 C 532.007812 114.914062 532.019531 114.542969 532.007812 114.171875 C 531.996094 113.800781 531.964844 113.429688 531.914062 113.0625 C 531.863281 112.691406 531.789062 112.328125 531.695312 111.96875 C 531.605469 111.609375 531.492188 111.253906 531.359375 110.90625 C 531.226562 110.558594 531.074219 110.21875 530.902344 109.886719 C 530.734375 109.554688 530.546875 109.234375 530.339844 108.921875 C 530.132812 108.609375 529.910156 108.3125 529.667969 108.023438 C 529.429688 107.738281 529.175781 107.464844 528.902344 107.207031 C 528.632812 106.945312 528.347656 106.703125 528.050781 106.472656 C 527.753906 106.246094 527.445312 106.035156 527.125 105.839844 C 526.800781 105.644531 526.472656 105.46875 526.128906 105.308594 C 525.789062 105.152344 525.441406 105.011719 525.082031 104.890625 C 524.726562 104.769531 524.363281 104.667969 523.996094 104.589844 C 523.628906 104.507812 523.257812 104.445312 522.882812 104.40625 C 522.507812 104.363281 522.132812 104.34375 521.753906 104.34375 M 521.753906 114.457031 L 508.882812 179.777344 L 556.855469 179.777344 C 587.042969 179.777344 607.863281 184.972656 619.324219 195.347656 C 630.785156 205.726562 634.214844 222.554688 629.636719 245.8125 L 607.101562 360.140625 L 552.398438 360.140625 L 573.816406 251.4375 C 576.253906 239.070312 575.359375 230.636719 571.128906 226.136719 C 566.894531 221.640625 557.882812 219.390625 544.105469 219.390625 L 501.058594 219.390625 L 473.320312 360.140625 L 419.46875 360.140625 L 467.898438 114.457031 L 521.75 114.457031 " fill-opacity="1" fill-rule="nonzero"/><path fill="#000000" d="M 719.871094 316.316406 C 740.5 316.316406 755.898438 312.566406 765.636719 305.171875 C 775.277344 297.859375 781.933594 285.179688 785.425781 267.492188 C 788.679688 250.964844 787.4375 239.421875 781.742188 233.195312 C 775.917969 226.832031 763.324219 223.605469 744.3125 223.605469 L 711.351562 223.605469 L 693.078125 316.316406 Z M 612.0625 430.519531 C 610.53125 430.519531 609.078125 429.84375 608.105469 428.675781 C 607.621094 428.09375 607.28125 427.4375 607.09375 426.707031 C 606.902344 425.972656 606.882812 425.238281 607.027344 424.496094 L 655.457031 178.8125 C 655.570312 178.238281 655.78125 177.699219 656.085938 177.191406 C 656.390625 176.6875 656.769531 176.25 657.230469 175.875 C 657.691406 175.503906 658.199219 175.21875 658.761719 175.019531 C 659.320312 174.820312 659.898438 174.722656 660.492188 174.722656 L 764.867188 174.722656 C 797.675781 174.722656 822.089844 183.488281 837.4375 200.828125 C 852.867188 218.242188 857.628906 242.582031 851.597656 273.175781 C 849.140625 285.640625 844.917969 297.214844 839.046875 307.582031 C 833.164062 317.957031 825.394531 327.554688 815.949219 336.117188 C 804.640625 346.554688 791.835938 354.125 777.933594 358.578125 C 764.253906 362.972656 746.683594 365.203125 725.710938 365.203125 L 683.414062 365.203125 L 671.351562 426.429688 C 671.238281 427.003906 671.027344 427.546875 670.722656 428.050781 C 670.417969 428.554688 670.039062 428.992188 669.578125 429.367188 C 669.117188 429.738281 668.609375 430.027344 668.046875 430.222656 C 667.488281 430.421875 666.910156 430.523438 666.316406 430.519531 L 612.035156 430.519531 Z M 612.0625 430.519531 " fill-opacity="1" fill-rule="nonzero"/><path fill="#ffffff" d="M 715.582031 228.660156 L 744.316406 228.660156 C 767.257812 228.660156 775.230469 233.625 777.9375 236.585938 C 782.433594 241.496094 783.28125 251.851562 780.390625 266.53125 C 777.148438 282.964844 771.132812 294.621094 762.511719 301.164062 C 753.6875 307.863281 739.339844 311.257812 719.875 311.257812 L 699.304688 311.257812 Z M 764.867188 169.664062 L 660.492188 169.664062 C 659.902344 169.664062 659.316406 169.714844 658.734375 169.8125 C 658.152344 169.914062 657.582031 170.0625 657.027344 170.257812 C 656.46875 170.457031 655.933594 170.699219 655.421875 170.988281 C 654.910156 171.273438 654.425781 171.605469 653.96875 171.972656 C 653.511719 172.34375 653.09375 172.75 652.707031 173.191406 C 652.324219 173.636719 651.980469 174.105469 651.675781 174.605469 C 651.375 175.109375 651.121094 175.628906 650.910156 176.175781 C 650.699219 176.71875 650.535156 177.277344 650.425781 177.847656 L 601.992188 423.546875 C 601.917969 423.914062 601.867188 424.28125 601.835938 424.652344 C 601.808594 425.023438 601.796875 425.390625 601.808594 425.765625 C 601.820312 426.136719 601.851562 426.503906 601.902344 426.875 C 601.953125 427.242188 602.027344 427.605469 602.121094 427.964844 C 602.210938 428.328125 602.324219 428.679688 602.457031 429.027344 C 602.589844 429.378906 602.742188 429.71875 602.910156 430.046875 C 603.082031 430.378906 603.269531 430.703125 603.476562 431.011719 C 603.683594 431.324219 603.90625 431.621094 604.144531 431.910156 C 604.386719 432.195312 604.640625 432.46875 604.910156 432.726562 C 605.179688 432.988281 605.464844 433.230469 605.761719 433.460938 C 606.0625 433.6875 606.371094 433.898438 606.691406 434.09375 C 607.011719 434.289062 607.34375 434.464844 607.683594 434.625 C 608.027344 434.78125 608.375 434.921875 608.730469 435.042969 C 609.085938 435.164062 609.449219 435.265625 609.816406 435.34375 C 610.1875 435.425781 610.558594 435.488281 610.933594 435.527344 C 611.304688 435.570312 611.683594 435.589844 612.058594 435.589844 L 666.339844 435.589844 C 666.929688 435.589844 667.515625 435.539062 668.097656 435.441406 C 668.679688 435.339844 669.25 435.191406 669.804688 434.996094 C 670.359375 434.796875 670.894531 434.554688 671.410156 434.269531 C 671.921875 433.980469 672.40625 433.652344 672.863281 433.28125 C 673.320312 432.910156 673.738281 432.503906 674.125 432.0625 C 674.507812 431.621094 674.851562 431.148438 675.15625 430.648438 C 675.457031 430.148438 675.710938 429.625 675.921875 429.082031 C 676.132812 428.535156 676.296875 427.976562 676.40625 427.40625 L 687.667969 370.269531 L 725.707031 370.269531 C 747.21875 370.269531 765.324219 367.957031 779.523438 363.398438 C 794.125 358.722656 807.5625 350.789062 819.453125 339.824219 C 829.289062 330.90625 837.382812 320.894531 843.523438 310.0625 C 849.660156 299.234375 854.070312 287.148438 856.628906 274.15625 C 862.980469 241.953125 857.820312 216.164062 841.296875 197.515625 C 824.929688 179.042969 799.21875 169.679688 764.867188 169.679688 M 686.855469 321.386719 L 719.871094 321.386719 C 741.753906 321.386719 758.054688 317.324219 768.765625 309.195312 C 779.472656 301.0625 786.703125 287.492188 790.457031 268.472656 C 794.050781 250.214844 792.414062 237.328125 785.550781 229.820312 C 778.6875 222.3125 764.933594 218.5625 744.316406 218.5625 L 707.125 218.5625 L 686.855469 321.386719 M 764.867188 179.792969 C 796.269531 179.792969 819.175781 187.917969 833.574219 204.164062 C 847.972656 220.414062 852.304688 243.101562 846.5625 272.222656 C 844.195312 284.222656 840.199219 295.1875 834.570312 305.128906 C 828.9375 315.066406 821.570312 324.164062 812.476562 332.410156 C 801.636719 342.410156 789.597656 349.535156 776.347656 353.78125 C 763.097656 358.039062 746.226562 360.15625 725.710938 360.15625 L 679.21875 360.15625 L 666.34375 425.476562 L 612.066406 425.476562 L 660.492188 179.792969 L 764.871094 179.792969 " fill-opacity="1" fill-rule="nonzero"/></svg>