<svg xmlns="http://www.w3.org/2000/svg" xmlns:xlink="http://www.w3.org/1999/xlink" width="1366" zoomAndPan="magnify" viewBox="0 0 1024.5 576" height="768" preserveAspectRatio="xMidYMid meet" version="1.0"><path fill="#ff0196" d="M 751.253906 322.773438 C 777.984375 307.328125 777.984375 268.722656 751.253906 253.292969 C 732.054688 242.214844 725.488281 217.683594 736.566406 198.5 C 751.996094 171.753906 732.703125 138.328125 701.828125 138.328125 C 679.667969 138.328125 661.703125 120.363281 661.703125 98.222656 C 661.703125 67.328125 628.277344 48.035156 601.546875 63.480469 C 582.363281 74.542969 557.816406 67.976562 546.753906 48.792969 C 531.308594 22.046875 492.722656 22.046875 477.277344 48.792969 C 466.195312 67.976562 441.667969 74.542969 422.484375 63.480469 C 395.734375 48.035156 362.308594 67.328125 362.308594 98.222656 C 362.308594 120.363281 344.347656 138.328125 322.203125 138.328125 C 291.3125 138.328125 272.015625 171.753906 287.464844 198.5 C 298.542969 217.683594 291.957031 242.214844 272.777344 253.292969 C 246.046875 268.722656 246.046875 307.328125 272.777344 322.773438 C 291.957031 333.835938 298.542969 358.363281 287.464844 377.566406 C 272.015625 404.296875 291.328125 437.722656 322.203125 437.722656 C 344.347656 437.722656 362.308594 455.683594 362.308594 477.847656 C 362.308594 508.71875 395.734375 528.011719 422.484375 512.585938 C 441.667969 501.503906 466.195312 508.074219 477.277344 527.253906 C 492.722656 554.003906 531.308594 554.003906 546.753906 527.253906 C 557.816406 508.074219 582.363281 501.503906 601.546875 512.585938 C 628.277344 528.011719 661.703125 508.71875 661.703125 477.847656 C 661.703125 455.683594 679.667969 437.722656 701.828125 437.722656 C 732.703125 437.722656 751.996094 404.296875 736.566406 377.566406 C 725.488281 358.363281 732.054688 333.835938 751.253906 322.773438 " fill-opacity="1" fill-rule="nonzero"/><path fill="#ffffff" d="M 654.839844 220.773438 L 617.253906 183.203125 L 483.082031 317.371094 L 418.117188 252.40625 L 380.527344 289.996094 L 445.496094 354.941406 L 445.164062 355.277344 L 482.75 392.847656 L 483.066406 392.53125 L 483.398438 392.863281 L 520.988281 355.277344 L 520.671875 354.941406 L 654.839844 220.773438 " fill-opacity="1" fill-rule="nonzero"/></svg>